<svg xmlns="http://www.w3.org/2000/svg" viewBox="0 0 132.92 139.89"><g style="isolation:isolate"><g id="Camada_1" data-name="Camada 1"><path d="M193.18,170.36c-9.77-3.69-25.26-6.07-42.69-6.07s-32.92,2.38-42.69,6.07H97v9.23c0,8.45,24,15.3,53.53,15.3S204,188,204,179.59v-9.23Z" transform="translate(-84.03 -55.01)" style="fill:#c9edfe"/><path d="M150.49,101.45H84L97,170.36c0,8.45,24,15.3,53.53,15.3S204,178.81,204,170.36L217,101.45Z" transform="translate(-84.03 -55.01)" style="fill:#ff5252"/><path d="M84,101.45l11.39,60.68c4.19-.32,8.37-2,12.23-3.8,5.47-2.59,11-5.63,17-5.86,10.43-.4,19.77,7.6,30.2,7.31,7.84-.22,15.45-5.13,23.07-3.29,4.55,1.1,8.5,4.54,13.18,4.59,5.45.07,9.71-4.38,14.3-7.33.62-.4,1.26-.78,1.91-1.13l9.6-51.17H84Z" transform="translate(-84.03 -55.01)" style="fill:#ffd6db"/><path d="M84,101.45l5,26.78a20.31,20.31,0,0,0,7.48,2c3.3.28,6.74.55,9.55,2.3,3.17,2,5.07,5.58,8.27,7.51,4.36,2.64,9.92,1.56,14.88.39l26.34-6.17c3.86-.91,7.95-1.81,11.73-.61,4.13,1.31,7.09,4.85,10.54,7.48s8.57,4.29,12,1.6,3.2-8.57,6.65-11.39c3.08-2.52,7.58-1.53,11.53-2a16.23,16.23,0,0,0,3.9-1l5-26.93H84Z" transform="translate(-84.03 -55.01)" style="fill:#ff5252"/><ellipse cx="66.46" cy="46.45" rx="66.46" ry="19" style="fill:#b0cfde"/><path d="M189.29,120.39c-7.87,1.29-15.87,1.48-23.79,2.33a3.74,3.74,0,0,0-2.59,1c-1,1.19-.07,3.13,1.33,3.76a8.53,8.53,0,0,0,4.55.19,5,5,0,0,1,2.62.13,1.91,1.91,0,0,1,1.27,2.08c-.29,1.1-1.68,1.41-2.82,1.52.8,2,3.54,2.3,5.71,2.09s4.8-.36,6.09,1.4c1.1,1.51.64,3.78,1.78,5.25s3.62,1.47,5.21.4a10.29,10.29,0,0,0,3.26-4.64,15.14,15.14,0,0,1,2.85-4.95c1.81-1.8,4.45-2.42,6.8-3.44,6.32-2.77,11.91-10.13,11.43-17.28C207.14,116.42,197.45,119.05,189.29,120.39Z" transform="translate(-84.03 -55.01)" style="fill:#ff5252;mix-blend-mode:screen"/><path d="M197.83,135.36c-2,2.33-3.07,5.32-5.06,7.66a13,13,0,0,1-15.26,3.09c-1.06-.54-2.38-1.22-3.32-.5a1.88,1.88,0,0,0,0,2.68,4.2,4.2,0,0,0,2.73,1.14,10.69,10.69,0,0,1,2.77.44,2.34,2.34,0,0,1,1.62,2.09c-.05.94-3.78,1.94-4.49,1.32,2.2,1.51,6.94,2.68,9.26,4s5.16,2.64,7.79,1.84a8,8,0,0,0,4.23-3.66c1-1.63,1.69-3.43,2.63-5.09,1.35-2.41,3.22-4.49,4.71-6.82,2.26-3.52,4.31-8.44,4-12.71A14.27,14.27,0,0,0,197.83,135.36Z" transform="translate(-84.03 -55.01)" style="fill:#ffd6db;mix-blend-mode:screen"/><path d="M162.59,135.38a38.93,38.93,0,0,0-10,1.79l-13.26,3.58c-.78.22-1.71.6-1.78,1.41a1.37,1.37,0,0,0,1,1.28,3.92,3.92,0,0,0,1.77,0l4.8-.79a2,2,0,0,1,1.7.25,1.38,1.38,0,0,1-.24,1.89,5.55,5.55,0,0,1-1.9.9A2.57,2.57,0,0,0,143.1,147a2,2,0,0,0,1.35,2.42,5.84,5.84,0,0,0,3.05,0,6,6,0,0,1,3.06,0,2.94,2.94,0,0,1,.23,5.43c-.69.32-1.63.5-1.81,1.24s.57,1.35,1.26,1.66c4.36,2,9.45.56,13.87-1.25a6.54,6.54,0,0,0,2.17-1.26,2.33,2.33,0,0,0,.71-2.29c-.19-.61-.72-1.1-.84-1.74a2,2,0,0,1,.8-1.81,10.55,10.55,0,0,1,1.77-1.07c2.52-1.45,5.79-6.09,4.07-9.13-.66-1.17-2.43-1.81-3.58-2.35A15.26,15.26,0,0,0,162.59,135.38Z" transform="translate(-84.03 -55.01)" style="fill:#ffd6db;mix-blend-mode:screen"/><path d="M157.16,124.08a2,2,0,0,1,1,.18,1.36,1.36,0,0,1,.23,1.92,4,4,0,0,1-1.77,1.21,4.5,4.5,0,0,1,1.83.64,1.59,1.59,0,0,1,.67,1.7c-.24.69-1.05,1-1.76,1.17l-18.81,5.22a4.57,4.57,0,0,1-2.55.2,1.56,1.56,0,0,1-1.09-2c.35-.68,1.24-.83,1.83-1.3,1.24-1,.7-3.13-.52-4.15s-2.86-1.38-4.29-2.09-2.78-2.12-2.5-3.69C138.53,124.45,147.93,124.08,157.16,124.08Z" transform="translate(-84.03 -55.01)" style="fill:#ff5252;mix-blend-mode:screen"/><path d="M190.56,162.38c-5.77.2-11.3-3.34-17-2.61a2.11,2.11,0,0,0-1.29.51,1.68,1.68,0,0,0,.44,2.35,7.48,7.48,0,0,0,2.5,1,2.84,2.84,0,0,1,2,1.63c.37,1.22-.69,2.37-1.71,3.12s-2.2,1.63-2.24,2.89a3.14,3.14,0,0,0,1.6,2.5,16.24,16.24,0,0,1,2.56,1.74,4.12,4.12,0,0,1-.44,5.95,39.39,39.39,0,0,0,19.93-4.34,11,11,0,0,0,4.2-3.3,12.88,12.88,0,0,0,1.55-4c.74-2.78,1.48-5.56,2-8.38.31-1.56,1.86-5.74-.35-5.35-1.84.32-4.32,3-6,3.92A17.9,17.9,0,0,1,190.56,162.38Z" transform="translate(-84.03 -55.01)" style="fill:#ff5252;mix-blend-mode:screen"/><path d="M150.59,161.74a5.35,5.35,0,0,0-3,0c-.93.4-1.52,1.69-.85,2.44.48.52,1.28.5,2,.58s1.53.44,1.55,1.15c0,.92-1.27,1.2-1.8,2a2.06,2.06,0,0,0,.49,2.5c.64.66,1.5,1.06,2.19,1.67a5,5,0,0,1-.18,7.3c-.73.58-1.62.94-2.34,1.53a2.39,2.39,0,0,0-1,2.44,75.53,75.53,0,0,0,19.7,0,8.63,8.63,0,0,0,4-1.28,3.17,3.17,0,0,0,1.22-3.73c-.71-1.42-2.53-1.72-4.06-2.13s-3.27-1.59-2.91-3.12c.41-1.74,3.28-2.57,2.76-4.27-.2-.68-.9-1.06-1.29-1.65-1-1.42.19-3.27,1.26-4.6s2.15-3.26,1.1-4.61a19.7,19.7,0,0,1-3.26,2.07,29.34,29.34,0,0,1-5,1.52A28.84,28.84,0,0,1,150.59,161.74Z" transform="translate(-84.03 -55.01)" style="fill:#ff5252;mix-blend-mode:screen"/><path d="M110.79,170.36,97.85,101.45H84L97,170.36c0,8.45,24,15.3,53.53,15.3,2.34,0,4.65,0,6.91-.13C131.11,184.56,110.79,178.14,110.79,170.36Z" transform="translate(-84.03 -55.01)" style="fill:#ff5252;opacity:0.5;mix-blend-mode:multiply"/><path d="M150.49,101.45H84L97,170.36c0,8.45,24,15.3,53.53,15.3S204,178.81,204,170.36L217,101.45Z" transform="translate(-84.03 -55.01)" style="fill:#e1f5fe;opacity:0.2"/><path d="M150.49,120.45c28.37,0,52.58-5.08,62.12-12.23a3.12,3.12,0,0,0-.8-5.37c-6.62-2.7-10.33-6.39-18.41-8.59-5.1-1.39-16.58-.66-21.87-.55-5.11.09-10.23,1.59-15.27.73-5.43-.94-10.1-4.52-15.48-5.69-6.29-1.36-12.79.7-18.68,3.29s-11.65,5.74-18,6.74c-4.55.71-9.26.28-13.71,1.44l-.07,0A4.71,4.71,0,0,0,89,108.63C98.86,115.57,122.67,120.45,150.49,120.45Z" transform="translate(-84.03 -55.01)" style="fill:#ff5252"/><path d="M167.21,110.79c2.56.7,5.46,2.08,7.8.15,4.58-3.77-.78-7.78-3.78-10.25a60,60,0,0,0-9-6.1,23.93,23.93,0,0,1-5.92-.15c-5.43-.94-10.1-4.52-15.48-5.69-6.29-1.36-12.79.7-18.68,3.29s-11.65,5.74-18,6.74c-4.55.71-9.26.28-13.71,1.44l-.07,0A4.71,4.71,0,0,0,89,108.63c3.42,2.4,8.51,4.55,14.85,6.34,6.74-.36,13.61-1.27,20.19-.06,4.34.81,12.38,2.55,16.79,2.41,5.35-.17,7.29-2.17,11.26-5.19C156.47,108.76,161.87,109.34,167.21,110.79Z" transform="translate(-84.03 -55.01)" style="fill:#ff5252;opacity:0.5;mix-blend-mode:multiply"/><path d="M207.93,103.59a3.8,3.8,0,0,1,1.58,2.62c0,1.21-1.07,2.13-2.09,2.78-4.43,2.79-9.7,3.89-14.86,4.79-8.38,1.46-16.84,2.54-25.33,3.23a1.52,1.52,0,0,1-1.15-.23,1,1,0,0,1,.11-1.42,2.83,2.83,0,0,1,1.44-.61c8-1.72,16.42-1.39,24-4.43a3.25,3.25,0,0,0,1.49-1,1.21,1.21,0,0,0-.11-1.64,2.1,2.1,0,0,0-1.49-.14c-.51,0-1.15,0-1.35-.5a1,1,0,0,1,.57-1.15,3.14,3.14,0,0,1,1.4-.14,19.4,19.4,0,0,0,4.37-.29,5.24,5.24,0,0,0,2.52-1,2.18,2.18,0,0,0,.72-2.45,2.56,2.56,0,0,0-2.51-1.19c-1,0-1.95.35-2.94.3a2.23,2.23,0,0,1-2.21-1.6c-.06-.36,0-.73,0-1.09A2.09,2.09,0,0,0,190.21,97c-.8-.15-1.64-.06-2.44-.24a1.77,1.77,0,0,1-1.06-.6.89.89,0,0,1,0-1.14,1.41,1.41,0,0,1,1.07-.26,14.65,14.65,0,0,1,4.19.45c1.4.45,2.82.76,4.2,1.27a36.93,36.93,0,0,1,7.88,4A27.15,27.15,0,0,1,207.93,103.59Z" transform="translate(-84.03 -55.01)" style="fill:#ff5252;mix-blend-mode:screen"/><path d="M217,101.45l0,.42,0,.51c0,.2-.08.43-.13.7a9,9,0,0,1-2.36,4c-2.79,3-8,5.74-14.46,8a97.32,97.32,0,0,1-10.65,3c-3.83.86-7.9,1.61-12.13,2.17s-8.63,1-13.11,1.33-9,.43-13.58.44-9.12-.16-13.58-.44-8.87-.76-13.11-1.32A123,123,0,0,1,101,115.05c-6.47-2.24-11.67-5-14.46-8a9,9,0,0,1-2.36-4c0-.27-.11-.49-.13-.7l0-.51,0-.42.06.42.07.5c0,.19.12.41.2.66A8.85,8.85,0,0,0,87,106.64c2.9,2.61,8.12,4.91,14.56,6.76a144,144,0,0,0,22.59,4.17c4.19.48,8.53.78,13,1.05s8.89.35,13.41.34,9-.1,13.41-.34,8.77-.57,12.95-1.05,8.22-1,12-1.75,7.35-1.5,10.59-2.41c6.43-1.86,11.65-4.15,14.56-6.77a9,9,0,0,0,2.61-3.6,6.76,6.76,0,0,0,.2-.67c0-.2.05-.37.07-.5Z" transform="translate(-84.03 -55.01)" style="fill:#fff"/><path d="M115,93.1a10.94,10.94,0,0,0-4.54,7.25c-.31,2.92,1.31,6.12,4.1,7,1.71.56,3.56.23,5.35.38,3.62.29,6.77,2.46,10,4.19s7,3.08,10.38,1.66c3.88-1.64,5.75-6.48,9.72-7.89a9.92,9.92,0,0,1,7.21.72c2.26,1,4.3,2.44,6.54,3.5a21.77,21.77,0,0,0,18.32,0c2.11-1,4.32-2.91,3.87-5.2-.3-1.55-1.79-2.88-1.42-4.41.25-1,1.25-1.66,1.85-2.53,1.3-1.9.37-4.68-1.42-6.13s-4.16-1.93-6.44-2.31a203.26,203.26,0,0,0-35.09-2.92C132.86,86.48,123.59,86.57,115,93.1Z" transform="translate(-84.03 -55.01)" style="fill:#ffd6db"/><path d="M154.82,104.05c-4.83.87-9.83,1-14.45,2.6-2.08.73-4.17,1.77-6.36,1.57-2.38-.22-4.39-1.87-6.7-2.49-1.93-.51-4-.28-6-.6s-4.06-1.47-4.46-3.43.92-3.62,2.29-4.93c4.41-4.2,10.38-6.51,16.41-7.38s12.17-.42,18.22.29a28.86,28.86,0,0,1,7.82,1.72,11.46,11.46,0,0,1,4.71,3.45c1.4,1.82.89,3-.71,4.51C162.71,102.07,158.68,103.36,154.82,104.05Z" transform="translate(-84.03 -55.01)" style="fill:#d1c9ca;opacity:0.7000000000000001;mix-blend-mode:multiply"/><path d="M144.27,101.29a30.3,30.3,0,0,0,20,.78c2.1-.65,4.23-1.63,5.45-3.46a9.24,9.24,0,0,0,1-6.24,25.5,25.5,0,0,0-8.24-15.54,32.62,32.62,0,0,0-16-7.7c-2.28-.42-4.77-.6-6.8.53-1.87,1-3,3-4,4.9q-2.44,4.47-4.86,9c-1.27,2.35-2.17,3.6-.79,6C133.11,94.82,138.65,99.05,144.27,101.29Z" transform="translate(-84.03 -55.01)" style="fill:#db4747"/><rect x="155.32" y="97.44" width="1.01" height="3.62" transform="translate(-45.48 187) rotate(-83.09)" style="fill:#efacac"/><rect x="148.17" y="97.98" width="1.01" height="2.71" transform="translate(-79.89 149.59) rotate(-69.81)" style="fill:#efacac"/><rect x="147.22" y="93.72" width="1.01" height="3.51" transform="translate(-94.8 116.74) rotate(-58.57)" style="fill:#efacac"/><rect x="141.39" y="94.27" width="1.01" height="2.77" transform="translate(-107.17 85.91) rotate(-49.32)" style="fill:#efacac"/><rect x="135.69" y="91.67" width="1.01" height="4.18" transform="translate(-112.58 52.89) rotate(-39.45)" style="fill:#efacac"/><rect x="140.1" y="88.97" width="1.01" height="2.71" transform="translate(-110.06 48.07) rotate(-37.09)" style="fill:#efacac"/><rect x="134.79" y="85.68" width="1.01" height="3.17" transform="translate(-108.88 15.76) rotate(-26.94)" style="fill:#efacac"/><path d="M147.07,90.42a7.31,7.31,0,0,1-2.65-2.59l.88-.52a6,6,0,0,0,2.27,2.22Z" transform="translate(-84.03 -55.01)" style="fill:#efacac"/><polygon points="70.42 38.55 68.39 37.13 68.97 36.3 71 37.72 70.42 38.55" style="fill:#efacac"/><rect x="160.72" y="94.24" width="1.01" height="4.26" transform="translate(-61.31 168.24) rotate(-73.36)" style="fill:#efacac"/><rect x="162.87" y="98.18" width="1.01" height="3.4" transform="matrix(0.07, -1, 1, 0.07, -31.68, 200.9)" style="fill:#efacac"/><rect x="165.74" y="91.8" width="1.01" height="4.24" transform="translate(-108.72 40.16) rotate(-29.84)" style="fill:#efacac"/><path d="M166.87,89.56A4.44,4.44,0,0,0,165,87l.54-.85a5.41,5.41,0,0,1,2.3,3.1Z" transform="translate(-84.03 -55.01)" style="fill:#efacac"/><rect x="159.52" y="88.72" width="1.01" height="3.29" transform="translate(-104.23 71.32) rotate(-40.74)" style="fill:#efacac"/><path d="M161.46,88.2a15.35,15.35,0,0,0-3.52-3l.54-.86a16,16,0,0,1,3.75,3.21Z" transform="translate(-84.03 -55.01)" style="fill:#efacac"/><path d="M154.92,87.22A5.5,5.5,0,0,0,152,84.88l.34-1a6.52,6.52,0,0,1,3.41,2.77Z" transform="translate(-84.03 -55.01)" style="fill:#efacac"/><rect x="146.27" y="81.6" width="1.01" height="4.24" transform="translate(-90.68 99.51) rotate(-54.47)" style="fill:#efacac"/><rect x="139.83" y="82.13" width="1.01" height="3.08" transform="matrix(0.77, -0.63, 0.63, 0.77, -105.32, 52.54)" style="fill:#efacac"/><path d="M135.79,83.48a5.58,5.58,0,0,1-1.63-1.58l.84-.57a4.57,4.57,0,0,0,1.33,1.3Z" transform="translate(-84.03 -55.01)" style="fill:#efacac"/><path d="M140.71,78.16a7.71,7.71,0,0,0-2.72-.93l.14-1a8.81,8.81,0,0,1,3.08,1.06Z" transform="translate(-84.03 -55.01)" style="fill:#efacac"/><path d="M146.68,78.78a9.81,9.81,0,0,0-3.2-1.3l.21-1a11,11,0,0,1,3.53,1.43Z" transform="translate(-84.03 -55.01)" style="fill:#efacac"/><rect x="150.46" y="76.9" width="1.01" height="3.39" transform="translate(-65.82 130.09) rotate(-66.24)" style="fill:#efacac"/><path d="M157.85,81.56A6.26,6.26,0,0,0,155.61,80l.38-.94a7.27,7.27,0,0,1,2.6,1.78Z" transform="translate(-84.03 -55.01)" style="fill:#efacac"/><path d="M163.39,83.29a6,6,0,0,0-2.77-2.84l.44-.91a6.87,6.87,0,0,1,3.25,3.33Z" transform="translate(-84.03 -55.01)" style="fill:#efacac"/><path d="M157.23,77.19a12.52,12.52,0,0,0-3-1.56l.35-1a13.94,13.94,0,0,1,3.22,1.69Z" transform="translate(-84.03 -55.01)" style="fill:#efacac"/><path d="M150.8,74.84a11.74,11.74,0,0,0-3.55-.9l.1-1a12.84,12.84,0,0,1,3.85,1Z" transform="translate(-84.03 -55.01)" style="fill:#efacac"/><path d="M140.44,72.11l-.07-1a18.31,18.31,0,0,1,4.18.18l-.17,1A17.28,17.28,0,0,0,140.44,72.11Z" transform="translate(-84.03 -55.01)" style="fill:#efacac"/><rect x="138.99" y="73.56" width="0.92" height="2.79" transform="translate(-55.76 132.66) rotate(-73.65)" style="fill:#efacac"/><path d="M132.11,88.7a4.33,4.33,0,0,1-1.8-3.09l1-.09a3.29,3.29,0,0,0,1.37,2.35Z" transform="translate(-84.03 -55.01)" style="fill:#efacac"/><g style="mix-blend-mode:screen"><path d="M157,75.7a5.48,5.48,0,0,0-2.28-1.12,2.1,2.1,0,0,0-2.21,1,2.21,2.21,0,0,0,.64,2.43,9.1,9.1,0,0,0,2.31,1.37c5.65,2.82,8,8.25,11.5,13.1,3.45-.74-.57-6.06-1.3-7.28A32.59,32.59,0,0,0,157,75.7Z" transform="translate(-84.03 -55.01)" style="fill:#db4747"/></g><path d="M134.56,71.05c2.66-2.32,5.64-4.27,8.12-6.78s4.5-5.74,4.56-9.26c1.2,2.92.51,6.35-1.11,9.07a34.9,34.9,0,0,1-2.65,4.33c4.47-2.49,6-.74,11,.4a9.16,9.16,0,0,1-6,6.43,14.08,14.08,0,0,1-9-.14,13.11,13.11,0,0,1,11.07,13c-5.65,1.81-12.13-1.36-15.21-6.44a20.23,20.23,0,0,1,.1,21.48c-4-4.94-6.74-7.78-5.17-14-1.84,7-5.5,9.06-11.87,12.45,4.38-4.92,6.31-11.29,7.81-17.57A25.83,25.83,0,0,1,134.56,71.05Z" transform="translate(-84.03 -55.01)" style="fill:#7cb342"/><path d="M166,96.52c-3.26,1-6.43,2.52-9.83,2.63-3.58.12-7.16-1.35-10.68-.68-6.17,1.16-9.74,8.3-15.84,9.8a13.08,13.08,0,0,0,9.06,1.29c3.56-.8,6.65-3.06,10.16-4.06,3.13-.88,6.44-.73,9.69-.58s6.57.25,9.67-.73c2.48-.78,6.54-3.14,6.48-6.22C174.58,94.29,168,95.9,166,96.52Z" transform="translate(-84.03 -55.01)" style="fill:#ffd6db"/><path d="M146.82,103.88a7.9,7.9,0,0,0-4.25,2.94,2.52,2.52,0,0,0-.46,1.35,1.31,1.31,0,0,0,.68,1.19,1.48,1.48,0,0,0,1.45-.23,5.84,5.84,0,0,0,1-1.12,10.69,10.69,0,0,1,9.91-3.67,3.54,3.54,0,0,0,1,.1,1,1,0,0,0,.83-.53c.62-1.37-3.75-1.15-4.43-1.12A19.08,19.08,0,0,0,146.82,103.88Z" transform="translate(-84.03 -55.01)" style="fill:#ffd6db;mix-blend-mode:screen"/><path d="M181.14,91.1c2.24.79,3.93,2,3.69,4.07-.22,1.79-2.5,2.81-2.69,4.61-.14,1.24.78,2.33,1.05,3.55a4.39,4.39,0,0,1-.75,3.34,8.11,8.11,0,0,1-2.62,2.32A15.69,15.69,0,0,1,169,110.73a20.56,20.56,0,0,1-9.86-5.07c-.37-.33-.76-.77-.65-1.26s.87-.76,1.41-.56a4.81,4.81,0,0,1,1.38,1,8,8,0,0,0,5.94,1.38,4,4,0,0,0,1.95-.58,1.61,1.61,0,0,0,.69-1.78,2,2,0,0,0-1.85-1,8.27,8.27,0,0,1-2.23-.13c-.72-.22-1.35-1-1.06-1.68a1.87,1.87,0,0,1,1.52-.86c2.63-.43,5.37-.32,7.88-1.21a2.81,2.81,0,0,0,1.32-.8,1.19,1.19,0,0,0,.09-1.44c-.42-.51-1.21-.4-1.87-.32s-1.51,0-1.66-.69c-.33-1.44,2-1.2,2.66-1.38a1.27,1.27,0,0,0,1-1,1.32,1.32,0,0,0-.9-1.25,5.56,5.56,0,0,0-1.63-.26,2.35,2.35,0,0,1-1.5-.6,1,1,0,0,1,0-1.45,1.49,1.49,0,0,1,1-.13A38.88,38.88,0,0,1,181.14,91.1Z" transform="translate(-84.03 -55.01)" style="fill:#ffd6db;mix-blend-mode:screen"/><line x1="119.15" y1="68.08" x2="111.94" y2="106.41" style="fill:none;stroke:#fff;stroke-linecap:round;stroke-miterlimit:10;stroke-width:10px;opacity:0.7000000000000001;mix-blend-mode:screen"/></g></g></svg>