<svg id="Camada_5" data-name="Camada 5" xmlns="http://www.w3.org/2000/svg" viewBox="0 0 101.95 124.91"><path d="M132.23,70s2.92,17.68-19.22,30.89-35.87,36.23,13.69,48.39S248.77,119.83,132.23,70Z" transform="translate(-92.96 -65.63)" style="fill:#713e28"/><path d="M136.85,99.09c9.2-9.92-4.62-29.12-4.62-29.12s2.92,17.68-19.22,30.89c-21,12.54-34.43,33.94,6.75,46.48C98.94,122.63,128,108.69,136.85,99.09Z" transform="translate(-92.96 -65.63)" style="fill:#8c5936"/><path d="M132.23,70s20.24,12.6,27.46,29.4c6.78,15.77-30.15,27.46,11.31,47.81C202.56,136.23,214.49,105.16,132.23,70Z" transform="translate(-92.96 -65.63)" style="fill:#502c1c"/><path d="M130.13,65.63s3.62,7.43-4.08,16.19-10.48,20.74,12.35,19.57S186.66,72.27,130.13,65.63Z" transform="translate(-92.96 -65.63)" style="fill:#fca599"/><path d="M136,77.89c2.6-5.6-5.88-12.26-5.88-12.26s3.62,7.43-4.08,16.19c-7.32,8.32-10.17,19.54,9.12,19.64C123,93.29,133.49,83.3,136,77.89Z" transform="translate(-92.96 -65.63)" style="fill:#ffbfb8"/><path d="M130.13,65.63s10.34,2.9,15.68,9.36c5,6.08-9.21,16.11,11.26,19.63C169.09,85.62,170,70.32,130.13,65.63Z" transform="translate(-92.96 -65.63)" style="fill:#fb887a"/><path d="M118.75,190.54H106.16L93.69,133c-1-4.5,2.12-8.15,6.91-8.15h0c4.78,0,9.19,3.65,9.84,8.15Z" transform="translate(-92.96 -65.63)" style="fill:#b6d7cf"/><path d="M100.6,124.88a5.74,5.74,0,0,1,5.56,4.54l9.8,61.12h2.79L110.44,133C109.79,128.53,105.38,124.88,100.6,124.88Z" transform="translate(-92.96 -65.63)" style="fill:#8fc2b4"/><path d="M100.6,124.88c-4.79,0-7.88,3.65-6.91,8.15l12.47,57.51h2.78L96.68,129.42A3.72,3.72,0,0,1,100.6,124.88Z" transform="translate(-92.96 -65.63)" style="fill:#8fc2b4"/><path d="M131.34,190.54H118.75L110.44,133c-.65-4.5,2.7-8.15,7.49-8.15h0c4.79,0,8.93,3.65,9.26,8.15Z" transform="translate(-92.96 -65.63)" style="fill:#d0eae4"/><path d="M117.93,124.88a5.23,5.23,0,0,1,5.23,4.54l5.4,61.12h2.78L127.19,133C126.86,128.53,122.72,124.88,117.93,124.88Z" transform="translate(-92.96 -65.63)" style="fill:#b6d7cf"/><path d="M117.93,124.88c-4.79,0-8.14,3.65-7.49,8.15l8.31,57.51h2.78l-7.85-61.12A4,4,0,0,1,117.93,124.88Z" transform="translate(-92.96 -65.63)" style="fill:#b6d7cf"/><path d="M143.93,190.54H131.34L127.19,133c-.33-4.5,3.29-8.15,8.08-8.15h0a8.42,8.42,0,0,1,8.66,8.15Z" transform="translate(-92.96 -65.63)" style="fill:#b6d7cf"/><path d="M135.27,124.88a4.78,4.78,0,0,1,4.9,4.54l1,61.12h2.78V133A8.42,8.42,0,0,0,135.27,124.88Z" transform="translate(-92.96 -65.63)" style="fill:#8fc2b4"/><path d="M135.27,124.88c-4.79,0-8.41,3.65-8.08,8.15l4.15,57.51h2.79l-3.44-61.12A4.39,4.39,0,0,1,135.27,124.88Z" transform="translate(-92.96 -65.63)" style="fill:#8fc2b4"/><path d="M169.12,190.54h12.59L194.18,133c1-4.5-2.12-8.15-6.91-8.15h0c-4.78,0-9.19,3.65-9.84,8.15Z" transform="translate(-92.96 -65.63)" style="fill:#d0eae4"/><path d="M187.27,124.88a5.72,5.72,0,0,0-5.56,4.54l-9.8,61.12h-2.79L177.43,133C178.08,128.53,182.49,124.88,187.27,124.88Z" transform="translate(-92.96 -65.63)" style="fill:#b6d7cf"/><path d="M187.27,124.88c4.79,0,7.88,3.65,6.91,8.15l-12.47,57.51h-2.78l12.26-61.12A3.72,3.72,0,0,0,187.27,124.88Z" transform="translate(-92.96 -65.63)" style="fill:#b6d7cf"/><path d="M156.53,190.54h12.59L177.43,133c.65-4.5-2.71-8.15-7.49-8.15h0c-4.79,0-8.93,3.65-9.26,8.15Z" transform="translate(-92.96 -65.63)" style="fill:#b6d7cf"/><path d="M169.94,124.88a5.25,5.25,0,0,0-5.24,4.54l-5.39,61.12h-2.78L160.68,133C161,128.53,165.15,124.88,169.94,124.88Z" transform="translate(-92.96 -65.63)" style="fill:#8fc2b4"/><path d="M169.94,124.88c4.78,0,8.14,3.65,7.49,8.15l-8.31,57.51h-2.79l7.86-61.12A4,4,0,0,0,169.94,124.88Z" transform="translate(-92.96 -65.63)" style="fill:#8fc2b4"/><path d="M143.93,190.54h12.6L160.68,133c.33-4.5-3.29-8.15-8.08-8.15h0a8.43,8.43,0,0,0-8.67,8.15Z" transform="translate(-92.96 -65.63)" style="fill:#d0eae4"/><path d="M152.6,124.88a4.78,4.78,0,0,0-4.9,4.54l-1,61.12h-2.79V133A8.43,8.43,0,0,1,152.6,124.88Z" transform="translate(-92.96 -65.63)" style="fill:#b6d7cf"/><path d="M152.6,124.88c4.79,0,8.41,3.65,8.08,8.15l-4.15,57.51h-2.79l3.44-61.12A4.39,4.39,0,0,0,152.6,124.88Z" transform="translate(-92.96 -65.63)" style="fill:#b6d7cf"/></svg>