<svg id="Camada_1" data-name="Camada 1" xmlns="http://www.w3.org/2000/svg" viewBox="0 0 101.95 120.58"><path d="M149.68,56.8s-2.92,17.68,19.23,30.89,35.86,36.23-13.69,48.39S33.14,106.67,149.68,56.8Z" transform="translate(-87.01 -56.8)" style="fill:#713e28"/><path d="M145.07,85.92c-9.21-9.92,4.61-29.12,4.61-29.12s-2.92,17.68,19.23,30.89c21,12.55,34.42,33.94-6.76,46.48C183,109.47,154,95.52,145.07,85.92Z" transform="translate(-87.01 -56.8)" style="fill:#502c1c"/><path d="M149.68,56.8s-20.23,12.6-27.46,29.4c-6.77,15.77,30.16,27.46-11.3,47.82C79.36,123.06,67.43,92,149.68,56.8Z" transform="translate(-87.01 -56.8)" style="fill:#8c5936"/><path d="M140.33,85.82c0-2.39-2.8-4.33-6.26-4.33s-6.26,1.94-6.26,4.33,2.8,4.34,6.26,4.34S140.33,88.22,140.33,85.82Z" transform="translate(-87.01 -56.8)" style="fill:#f16f59"/><path d="M138.9,84.83c0-1.84-2.16-3.34-4.83-3.34s-4.83,1.5-4.83,3.34,2.16,3.35,4.83,3.35S138.9,86.68,138.9,84.83Z" transform="translate(-87.01 -56.8)" style="fill:#fca599"/><path d="M135.91,83c0-.79-.92-1.43-2.06-1.43s-2.06.64-2.06,1.43.92,1.43,2.06,1.43S135.91,83.8,135.91,83Z" transform="translate(-87.01 -56.8)" style="fill:#f8dcce"/><path d="M145.44,103.86c0-2.39-3-4.33-6.69-4.33s-6.69,1.94-6.69,4.33,3,4.33,6.69,4.33S145.44,106.25,145.44,103.86Z" transform="translate(-87.01 -56.8)" style="fill:#f16f59"/><path d="M143.91,102.87c0-1.85-2.31-3.34-5.16-3.34s-5.16,1.49-5.16,3.34,2.31,3.34,5.16,3.34S143.91,104.72,143.91,102.87Z" transform="translate(-87.01 -56.8)" style="fill:#fca599"/><path d="M140.72,101.05c0-.79-1-1.43-2.2-1.43s-2.2.64-2.2,1.43,1,1.42,2.2,1.42S140.72,101.83,140.72,101.05Z" transform="translate(-87.01 -56.8)" style="fill:#f8dcce"/><ellipse cx="161.06" cy="95.4" rx="6.69" ry="4.33" transform="translate(-112.95 30.15) rotate(-28.05)" style="fill:#f16f59"/><path d="M165.15,92.1c-.87-1.63-3.61-1.86-6.13-.52s-3.85,3.75-3,5.38,3.61,1.86,6.13.52S166,93.73,165.15,92.1Z" transform="translate(-87.01 -56.8)" style="fill:#fca599"/><path d="M161.48,92c-.37-.7-1.54-.8-2.62-.23s-1.64,1.6-1.27,2.3,1.54.79,2.61.22S161.85,92.69,161.48,92Z" transform="translate(-87.01 -56.8)" style="fill:#f8dcce"/><path d="M121.08,101.4c.91-2.22-1.12-5.15-4.54-6.56s-6.92-.75-7.83,1.47,1.12,5.14,4.54,6.55S120.17,103.61,121.08,101.4Z" transform="translate(-87.01 -56.8)" style="fill:#f16f59"/><path d="M120,99.9c.71-1.71-.86-4-3.5-5.06s-5.34-.57-6,1.13.86,4,3.5,5.06S119.34,101.61,120,99.9Z" transform="translate(-87.01 -56.8)" style="fill:#fca599"/><path d="M117.78,97c.3-.73-.36-1.69-1.49-2.16s-2.28-.24-2.58.49.37,1.69,1.5,2.15S117.48,97.73,117.78,97Z" transform="translate(-87.01 -56.8)" style="fill:#f8dcce"/><path d="M138.89,64.5c-.85-2.24-4.34-3-7.79-1.68s-5.57,4.19-4.72,6.43,4.34,3,7.79,1.68S139.74,66.74,138.89,64.5Z" transform="translate(-87.01 -56.8)" style="fill:#f16f59"/><path d="M137.11,64.12c-.66-1.73-3.35-2.31-6-1.3s-4.3,3.23-3.64,5,3.34,2.31,6,1.3S137.76,65.84,137.11,64.12Z" transform="translate(-87.01 -56.8)" style="fill:#fca599"/><path d="M133.48,63.55c-.28-.74-1.43-1-2.57-.56s-1.83,1.38-1.55,2.12,1.43,1,2.56.55S133.75,64.28,133.48,63.55Z" transform="translate(-87.01 -56.8)" style="fill:#f8dcce"/><path d="M96.78,93.43c-1.94-1.4-5.27-.11-7.43,2.88s-2.35,6.56-.41,8,5.26.12,7.43-2.88S98.72,94.84,96.78,93.43Z" transform="translate(-87.01 -56.8)" style="fill:#f16f59"/><path d="M95.08,94.09C93.59,93,91,94,89.35,96.31s-1.82,5.06-.32,6.14,4.06.09,5.74-2.22S96.58,95.17,95.08,94.09Z" transform="translate(-87.01 -56.8)" style="fill:#fca599"/><path d="M91.73,95.61c-.63-.46-1.73,0-2.44,1s-.78,2.15-.14,2.62,1.74,0,2.45-1S92.37,96.07,91.73,95.61Z" transform="translate(-87.01 -56.8)" style="fill:#f8dcce"/><ellipse cx="109.99" cy="79.32" rx="6.69" ry="4.33" transform="translate(-112.02 9.73) rotate(-30.38)" style="fill:#f16f59"/><path d="M113.94,75.85c-.93-1.59-3.68-1.71-6.14-.27s-3.7,3.9-2.76,5.49,3.68,1.72,6.14.28S114.88,77.45,113.94,75.85Z" transform="translate(-87.01 -56.8)" style="fill:#fca599"/><path d="M110.27,75.9c-.4-.68-1.57-.74-2.62-.12s-1.58,1.66-1.18,2.34,1.57.73,2.62.12S110.66,76.57,110.27,75.9Z" transform="translate(-87.01 -56.8)" style="fill:#f8dcce"/><path d="M159.41,83.26c1.71-1.67,1-5.17-1.56-7.82s-6-3.44-7.77-1.77-1,5.16,1.56,7.81S157.69,84.93,159.41,83.26Z" transform="translate(-87.01 -56.8)" style="fill:#f16f59"/><path d="M159.05,81.47c1.33-1.28.79-4-1.2-6s-4.67-2.66-6-1.37-.79,4,1.2,6S157.73,82.76,159.05,81.47Z" transform="translate(-87.01 -56.8)" style="fill:#fca599"/><path d="M158.13,77.91c.57-.55.34-1.7-.51-2.57s-2-1.13-2.55-.58-.34,1.7.51,2.57S157.57,78.46,158.13,77.91Z" transform="translate(-87.01 -56.8)" style="fill:#f8dcce"/><path d="M184.64,103.32c1.6-1.78.67-5.23-2.08-7.69s-6.27-3-7.87-1.25-.67,5.23,2.08,7.7S183.05,105.1,184.64,103.32Z" transform="translate(-87.01 -56.8)" style="fill:#f16f59"/><path d="M184.17,101.56c1.23-1.37.51-4-1.61-5.93s-4.84-2.34-6.07-1-.52,4,1.6,5.93S182.93,102.94,184.17,101.56Z" transform="translate(-87.01 -56.8)" style="fill:#fca599"/><path d="M183,98.07c.53-.58.22-1.72-.69-2.53s-2.06-1-2.59-.41-.22,1.72.69,2.53S182.48,98.66,183,98.07Z" transform="translate(-87.01 -56.8)" style="fill:#f8dcce"/><path d="M163.16,177.38h12.6l12.46-57.52c1-4.5-2.12-8.15-6.9-8.15h0c-4.79,0-9.2,3.65-9.85,8.15Z" transform="translate(-87.01 -56.8)" style="fill:#b6d7cf"/><path d="M181.32,111.71a5.72,5.72,0,0,0-5.56,4.55L166,177.38h-2.79l8.31-57.52C172.12,115.36,176.53,111.71,181.32,111.71Z" transform="translate(-87.01 -56.8)" style="fill:#8fc2b4"/><path d="M181.32,111.71c4.78,0,7.87,3.65,6.9,8.15l-12.46,57.52H173l12.27-61.12A3.73,3.73,0,0,0,181.32,111.71Z" transform="translate(-87.01 -56.8)" style="fill:#8fc2b4"/><path d="M150.57,177.38h12.59l8.31-57.52c.65-4.5-2.7-8.15-7.49-8.15h0c-4.79,0-8.93,3.65-9.25,8.15Z" transform="translate(-87.01 -56.8)" style="fill:#d0eae4"/><path d="M164,111.71a5.23,5.23,0,0,0-5.23,4.55l-5.39,61.12h-2.79l4.16-57.52C155.05,115.36,159.19,111.71,164,111.71Z" transform="translate(-87.01 -56.8)" style="fill:#b6d7cf"/><path d="M164,111.71c4.79,0,8.14,3.65,7.49,8.15l-8.31,57.52h-2.78l7.85-61.12A4,4,0,0,0,164,111.71Z" transform="translate(-87.01 -56.8)" style="fill:#b6d7cf"/><path d="M138,177.38h12.59l4.16-57.52c.32-4.5-3.3-8.15-8.08-8.15h0a8.42,8.42,0,0,0-8.67,8.15Z" transform="translate(-87.01 -56.8)" style="fill:#b6d7cf"/><path d="M146.65,111.71a4.79,4.79,0,0,0-4.91,4.55l-1,61.12H138V119.86A8.42,8.42,0,0,1,146.65,111.71Z" transform="translate(-87.01 -56.8)" style="fill:#8fc2b4"/><path d="M146.65,111.71c4.78,0,8.4,3.65,8.08,8.15l-4.16,57.52h-2.78l3.43-61.12A4.39,4.39,0,0,0,146.65,111.71Z" transform="translate(-87.01 -56.8)" style="fill:#8fc2b4"/><path d="M112.79,177.38H100.2L87.74,119.86c-1-4.5,2.11-8.15,6.9-8.15h0c4.79,0,9.19,3.65,9.84,8.15Z" transform="translate(-87.01 -56.8)" style="fill:#d0eae4"/><path d="M94.64,111.71a5.72,5.72,0,0,1,5.56,4.55L110,177.38h2.78l-8.31-57.52C103.83,115.36,99.43,111.71,94.64,111.71Z" transform="translate(-87.01 -56.8)" style="fill:#b6d7cf"/><path d="M94.64,111.71c-4.79,0-7.88,3.65-6.9,8.15l12.46,57.52H103L90.72,116.26A3.73,3.73,0,0,1,94.64,111.71Z" transform="translate(-87.01 -56.8)" style="fill:#b6d7cf"/><path d="M125.39,177.38h-12.6l-8.31-57.52c-.65-4.5,2.71-8.15,7.5-8.15h0c4.78,0,8.93,3.65,9.25,8.15Z" transform="translate(-87.01 -56.8)" style="fill:#b6d7cf"/><path d="M112,111.71a5.24,5.24,0,0,1,5.23,4.55l5.39,61.12h2.79l-4.16-57.52C120.91,115.36,116.76,111.71,112,111.71Z" transform="translate(-87.01 -56.8)" style="fill:#8fc2b4"/><path d="M112,111.71c-4.79,0-8.15,3.65-7.5,8.15l8.31,57.52h2.79l-7.85-61.12A4,4,0,0,1,112,111.71Z" transform="translate(-87.01 -56.8)" style="fill:#8fc2b4"/><path d="M138,177.38H125.39l-4.16-57.52c-.32-4.5,3.29-8.15,8.08-8.15h0a8.42,8.42,0,0,1,8.67,8.15Z" transform="translate(-87.01 -56.8)" style="fill:#d0eae4"/><path d="M129.31,111.71a4.79,4.79,0,0,1,4.91,4.55l1,61.12H138V119.86A8.42,8.42,0,0,0,129.31,111.71Z" transform="translate(-87.01 -56.8)" style="fill:#b6d7cf"/><path d="M129.31,111.71c-4.79,0-8.4,3.65-8.08,8.15l4.16,57.52h2.78l-3.44-61.12A4.4,4.4,0,0,1,129.31,111.71Z" transform="translate(-87.01 -56.8)" style="fill:#b6d7cf"/></svg>