<svg id="Camada_2" data-name="Camada 2" xmlns="http://www.w3.org/2000/svg" viewBox="0 0 97.18 117.18"><path d="M187.55,101.81c0-16.12-21.76-29.19-48.59-29.19S90.37,85.69,90.37,101.81Z" transform="translate(-90.37 -58.5)" style="fill:#5d3420"/><path d="M139,72.62c-26.84,0-48.59,13.07-48.59,29.19h12.8C103.17,85.69,119.19,72.62,139,72.62Z" transform="translate(-90.37 -58.5)" style="fill:#8c4c35"/><path d="M139,72.62c19.76,0,35.78,13.07,35.78,29.19h12.81C187.55,85.69,165.79,72.62,139,72.62Z" transform="translate(-90.37 -58.5)" style="fill:#442215"/><path d="M109.8,172H90.37V103.38a9.72,9.72,0,0,1,9.72-9.72h0a9.72,9.72,0,0,1,9.71,9.72Z" transform="translate(-90.37 -58.5)" style="fill:#b58050"/><path d="M100.09,93.66a5.42,5.42,0,0,1,5.41,5.42V172h4.3V103.38A9.72,9.72,0,0,0,100.09,93.66Z" transform="translate(-90.37 -58.5)" style="fill:#8c5936"/><path d="M100.09,93.66a9.72,9.72,0,0,0-9.72,9.72V172h4.3V99.08A5.42,5.42,0,0,1,100.09,93.66Z" transform="translate(-90.37 -58.5)" style="fill:#8c5936"/><path d="M129.24,172H109.8V103.38a9.72,9.72,0,0,1,9.72-9.72h0a9.72,9.72,0,0,1,9.72,9.72Z" transform="translate(-90.37 -58.5)" style="fill:#d5a780"/><path d="M119.52,93.66a5.42,5.42,0,0,1,5.42,5.42V172h4.3V103.38A9.72,9.72,0,0,0,119.52,93.66Z" transform="translate(-90.37 -58.5)" style="fill:#b58050"/><path d="M119.52,93.66a9.72,9.72,0,0,0-9.72,9.72V172h4.3V99.08A5.42,5.42,0,0,1,119.52,93.66Z" transform="translate(-90.37 -58.5)" style="fill:#b58050"/><path d="M48.59,35.17h0a9.72,9.72,0,0,1,9.72,9.72v68.61a0,0,0,0,1,0,0H38.87a0,0,0,0,1,0,0V44.88A9.72,9.72,0,0,1,48.59,35.17Z" style="fill:#b58050"/><path d="M139,93.66a5.42,5.42,0,0,1,5.41,5.42V172h4.3V103.38A9.72,9.72,0,0,0,139,93.66Z" transform="translate(-90.37 -58.5)" style="fill:#8c5936"/><path d="M139,93.66a9.72,9.72,0,0,0-9.72,9.72V172h4.3V99.08A5.42,5.42,0,0,1,139,93.66Z" transform="translate(-90.37 -58.5)" style="fill:#8c5936"/><path d="M168.11,172H148.67V103.38a9.72,9.72,0,0,1,9.72-9.72h0a9.72,9.72,0,0,1,9.72,9.72Z" transform="translate(-90.37 -58.5)" style="fill:#d5a780"/><path d="M158.39,93.66a5.42,5.42,0,0,1,5.42,5.42V172h4.3V103.38A9.72,9.72,0,0,0,158.39,93.66Z" transform="translate(-90.37 -58.5)" style="fill:#b58050"/><path d="M158.39,93.66a9.72,9.72,0,0,0-9.72,9.72V172H153V99.08A5.42,5.42,0,0,1,158.39,93.66Z" transform="translate(-90.37 -58.5)" style="fill:#b58050"/><path d="M187.55,172H168.11V103.38a9.72,9.72,0,0,1,9.72-9.72h0a9.72,9.72,0,0,1,9.72,9.72Z" transform="translate(-90.37 -58.5)" style="fill:#b58050"/><path d="M177.83,93.66a5.42,5.42,0,0,1,5.41,5.42V172h4.31V103.38A9.72,9.72,0,0,0,177.83,93.66Z" transform="translate(-90.37 -58.5)" style="fill:#8c5936"/><path d="M177.83,93.66a9.72,9.72,0,0,0-9.72,9.72V172h4.3V99.08A5.42,5.42,0,0,1,177.83,93.66Z" transform="translate(-90.37 -58.5)" style="fill:#8c5936"/><rect y="113.49" width="97.18" height="3.68" style="fill:#5d3420"/><rect x="77.74" y="113.49" width="19.44" height="3.68" style="fill:#502c1c"/><rect y="113.49" width="19.44" height="3.68" style="fill:#502c1c"/><rect y="60.76" width="97.18" height="27.15" style="fill:#e8c367"/><rect y="63.45" width="97.18" height="21.75" style="fill:#f4de7f"/><rect y="65.78" width="97.18" height="17.1" style="fill:#f9eda7"/><path d="M101.71,126.64a2.79,2.79,0,1,1-2.79,2.79A2.79,2.79,0,0,1,101.71,126.64Z" transform="translate(-90.37 -58.5)" style="fill:#e8c367"/><path d="M101.71,128.31a1.12,1.12,0,1,1-1.12,1.12A1.12,1.12,0,0,1,101.71,128.31Z" transform="translate(-90.37 -58.5)" style="fill:#b68737"/><path d="M114.12,133.44a2.79,2.79,0,1,1-2.78,2.79A2.79,2.79,0,0,1,114.12,133.44Z" transform="translate(-90.37 -58.5)" style="fill:#e8c367"/><path d="M114.12,135.11a1.12,1.12,0,1,1-1.11,1.12A1.12,1.12,0,0,1,114.12,135.11Z" transform="translate(-90.37 -58.5)" style="fill:#b68737"/><path d="M126.54,126.64a2.79,2.79,0,1,1-2.79,2.79A2.79,2.79,0,0,1,126.54,126.64Z" transform="translate(-90.37 -58.5)" style="fill:#e8c367"/><path d="M126.54,128.31a1.12,1.12,0,1,1-1.11,1.12A1.12,1.12,0,0,1,126.54,128.31Z" transform="translate(-90.37 -58.5)" style="fill:#b68737"/><path d="M139,133.44a2.79,2.79,0,1,1-2.79,2.79A2.78,2.78,0,0,1,139,133.44Z" transform="translate(-90.37 -58.5)" style="fill:#e8c367"/><path d="M139,135.11a1.12,1.12,0,1,1-1.12,1.12A1.12,1.12,0,0,1,139,135.11Z" transform="translate(-90.37 -58.5)" style="fill:#b68737"/><path d="M151.37,126.64a2.79,2.79,0,1,1-2.79,2.79A2.79,2.79,0,0,1,151.37,126.64Z" transform="translate(-90.37 -58.5)" style="fill:#e8c367"/><path d="M151.37,128.31a1.12,1.12,0,1,1-1.11,1.12A1.12,1.12,0,0,1,151.37,128.31Z" transform="translate(-90.37 -58.5)" style="fill:#b68737"/><path d="M163.79,133.44a2.79,2.79,0,1,1-2.79,2.79A2.79,2.79,0,0,1,163.79,133.44Z" transform="translate(-90.37 -58.5)" style="fill:#e8c367"/><path d="M163.79,135.11a1.12,1.12,0,1,1-1.12,1.12A1.12,1.12,0,0,1,163.79,135.11Z" transform="translate(-90.37 -58.5)" style="fill:#b68737"/><path d="M176.2,126.64a2.79,2.79,0,1,1-2.78,2.79A2.79,2.79,0,0,1,176.2,126.64Z" transform="translate(-90.37 -58.5)" style="fill:#e8c367"/><path d="M176.2,128.31a1.12,1.12,0,1,1-1.11,1.12A1.12,1.12,0,0,1,176.2,128.31Z" transform="translate(-90.37 -58.5)" style="fill:#b68737"/><path d="M136.11,58.5s.71,4.3-4.69,7.52-8.73,8.83,3.34,11.79S164.49,70.64,136.11,58.5Z" transform="translate(-90.37 -58.5)" style="fill:#f2d972"/><path d="M137.23,65.59c2.24-2.42-1.12-7.09-1.12-7.09s.71,4.3-4.69,7.52c-5.12,3.06-8.38,8.27,1.65,11.32C128,71.32,135.06,67.93,137.23,65.59Z" transform="translate(-90.37 -58.5)" style="fill:#f9eda7"/><path d="M136.11,58.5s4.92,3.07,6.68,7.16c1.65,3.84-7.34,6.69,2.76,11.64C153.23,74.63,156.14,67.07,136.11,58.5Z" transform="translate(-90.37 -58.5)" style="fill:#e8c367"/></svg>