<svg id="Camada_3" data-name="Camada 3" xmlns="http://www.w3.org/2000/svg" viewBox="0 0 107.96 128.35"><path d="M82.33,125.2a51.63,51.63,0,1,1,103.26,0Z" transform="translate(-79.98 -58.91)" style="fill:#713e28"/><path d="M134,73.57A51.63,51.63,0,0,0,82.33,125.2h15C97.28,96.69,113.7,73.57,134,73.57Z" transform="translate(-79.98 -58.91)" style="fill:#8c4c35"/><path d="M134,73.57c20.25,0,36.68,23.12,36.68,51.63h15A51.64,51.64,0,0,0,134,73.57Z" transform="translate(-79.98 -58.91)" style="fill:#5d3420"/><path d="M107,187.26H93.51L80.17,125.69c-1-4.82,2.26-8.72,7.39-8.72h0c5.12,0,9.84,3.9,10.54,8.72Z" transform="translate(-79.98 -58.91)" style="fill:#fca599"/><path d="M87.56,117a6.11,6.11,0,0,1,6,4.86L104,187.26h3L98.1,125.69C97.4,120.87,92.68,117,87.56,117Z" transform="translate(-79.98 -58.91)" style="fill:#fb887a"/><path d="M87.56,117c-5.13,0-8.43,3.9-7.39,8.72l13.34,61.57h3L83.36,121.83A4,4,0,0,1,87.56,117Z" transform="translate(-79.98 -58.91)" style="fill:#fb887a"/><path d="M120.47,187.26H107L98.1,125.69c-.7-4.82,2.89-8.72,8-8.72h0c5.12,0,9.56,3.9,9.91,8.72Z" transform="translate(-79.98 -58.91)" style="fill:#ffbfb8"/><path d="M106.12,117a5.59,5.59,0,0,1,5.6,4.86l5.77,65.43h3L116,125.69C115.68,120.87,111.24,117,106.12,117Z" transform="translate(-79.98 -58.91)" style="fill:#fca599"/><path d="M106.12,117c-5.13,0-8.72,3.9-8,8.72L107,187.26h3l-8.41-65.43A4.32,4.32,0,0,1,106.12,117Z" transform="translate(-79.98 -58.91)" style="fill:#fca599"/><path d="M134,187.26H120.47L116,125.69c-.35-4.82,3.52-8.72,8.65-8.72h0a9,9,0,0,1,9.28,8.72Z" transform="translate(-79.98 -58.91)" style="fill:#fca599"/><path d="M124.68,117a5.13,5.13,0,0,1,5.25,4.86l1,65.43h3V125.69A9,9,0,0,0,124.68,117Z" transform="translate(-79.98 -58.91)" style="fill:#fb887a"/><path d="M124.68,117c-5.13,0-9,3.9-8.65,8.72l4.44,61.57h3l-3.68-65.43A4.69,4.69,0,0,1,124.68,117Z" transform="translate(-79.98 -58.91)" style="fill:#fb887a"/><path d="M160.92,187.26H174.4l13.34-61.57c1-4.82-2.26-8.72-7.39-8.72h0c-5.12,0-9.84,3.9-10.54,8.72Z" transform="translate(-79.98 -58.91)" style="fill:#ffbfb8"/><path d="M180.35,117a6.12,6.12,0,0,0-5.95,4.86l-10.5,65.43h-3l8.89-61.57C170.51,120.87,175.23,117,180.35,117Z" transform="translate(-79.98 -58.91)" style="fill:#fca599"/><path d="M180.35,117c5.13,0,8.44,3.9,7.39,8.72L174.4,187.26h-3l13.13-65.43A4,4,0,0,0,180.35,117Z" transform="translate(-79.98 -58.91)" style="fill:#fca599"/><path d="M147.44,187.26h13.48l8.89-61.57c.7-4.82-2.89-8.72-8-8.72h0c-5.12,0-9.56,3.9-9.9,8.72Z" transform="translate(-79.98 -58.91)" style="fill:#fca599"/><path d="M161.79,117a5.6,5.6,0,0,0-5.6,4.86l-5.77,65.43h-3l4.45-61.57C152.23,120.87,156.67,117,161.79,117Z" transform="translate(-79.98 -58.91)" style="fill:#fb887a"/><path d="M161.79,117c5.13,0,8.72,3.9,8,8.72l-8.89,61.57h-3l8.4-65.43A4.32,4.32,0,0,0,161.79,117Z" transform="translate(-79.98 -58.91)" style="fill:#fb887a"/><path d="M134,187.26h13.48l4.45-61.57c.34-4.82-3.53-8.72-8.65-8.72h0a9,9,0,0,0-9.28,8.72Z" transform="translate(-79.98 -58.91)" style="fill:#ffbfb8"/><path d="M143.24,117a5.11,5.11,0,0,0-5.25,4.86l-1.05,65.43h-3V125.69A9,9,0,0,1,143.24,117Z" transform="translate(-79.98 -58.91)" style="fill:#fca599"/><path d="M143.24,117c5.12,0,9,3.9,8.65,8.72l-4.45,61.57h-3l3.68-65.43A4.7,4.7,0,0,0,143.24,117Z" transform="translate(-79.98 -58.91)" style="fill:#fca599"/><circle cx="53.98" cy="9.28" r="9.28" style="fill:#f16f59"/><circle cx="53.98" cy="7.16" r="7.16" style="fill:#fca599"/><path d="M136.69,62.17a3.06,3.06,0,1,0-3.06,3A3.05,3.05,0,0,0,136.69,62.17Z" transform="translate(-79.98 -58.91)" style="fill:#f8dcce"/><path d="M105.22,112.33H98.08a1.63,1.63,0,0,1-1.62-1.62h0a1.63,1.63,0,0,1,1.62-1.63h7.14a1.63,1.63,0,0,1,1.62,1.63h0A1.63,1.63,0,0,1,105.22,112.33Z" transform="translate(-79.98 -58.91)" style="fill:#f4de7f"/><path d="M97.33,109.75H106a.86.86,0,0,1,.84.66,1.63,1.63,0,0,0-1.59-1.33H98.08a1.63,1.63,0,0,0-1.59,1.33A.88.88,0,0,1,97.33,109.75Z" transform="translate(-79.98 -58.91)" style="fill:#f9eda7"/><path d="M106,111.5H97.33a.87.87,0,0,1-.86-.83s0,0,0,0a1.63,1.63,0,0,0,1.62,1.62h7.14a1.63,1.63,0,0,0,1.62-1.62v0A.87.87,0,0,1,106,111.5Z" transform="translate(-79.98 -58.91)" style="fill:#e8c367"/><path d="M107.56,95.78h-7.13a1.63,1.63,0,0,1-1.63-1.62h0a1.63,1.63,0,0,1,1.63-1.62h7.13a1.63,1.63,0,0,1,1.63,1.62h0A1.63,1.63,0,0,1,107.56,95.78Z" transform="translate(-79.98 -58.91)" style="fill:#f4de7f"/><path d="M99.68,93.21h8.63a.86.86,0,0,1,.84.65,1.62,1.62,0,0,0-1.59-1.32h-7.13a1.63,1.63,0,0,0-1.6,1.32A.88.88,0,0,1,99.68,93.21Z" transform="translate(-79.98 -58.91)" style="fill:#f9eda7"/><path d="M108.31,95H99.68a.87.87,0,0,1-.87-.83v0a1.63,1.63,0,0,0,1.63,1.62h7.13a1.63,1.63,0,0,0,1.63-1.62v0A.87.87,0,0,1,108.31,95Z" transform="translate(-79.98 -58.91)" style="fill:#e8c367"/><path d="M151.69,104.6h-7.14a1.63,1.63,0,0,1-1.62-1.63h0a1.63,1.63,0,0,1,1.62-1.62h7.14a1.63,1.63,0,0,1,1.62,1.62h0A1.63,1.63,0,0,1,151.69,104.6Z" transform="translate(-79.98 -58.91)" style="fill:#f4de7f"/><path d="M143.8,102h8.64a.86.86,0,0,1,.84.66,1.63,1.63,0,0,0-1.59-1.33h-7.14a1.63,1.63,0,0,0-1.59,1.33A.88.88,0,0,1,143.8,102Z" transform="translate(-79.98 -58.91)" style="fill:#f9eda7"/><path d="M152.44,103.76H143.8a.87.87,0,0,1-.86-.83s0,0,0,0a1.63,1.63,0,0,0,1.62,1.63h7.14a1.63,1.63,0,0,0,1.62-1.63v0A.87.87,0,0,1,152.44,103.76Z" transform="translate(-79.98 -58.91)" style="fill:#e8c367"/><path d="M158.18,115h-7.13a1.63,1.63,0,0,1-1.62-1.62h0a1.63,1.63,0,0,1,1.62-1.62h7.13a1.63,1.63,0,0,1,1.63,1.62h0A1.63,1.63,0,0,1,158.18,115Z" transform="translate(-79.98 -58.91)" style="fill:#f4de7f"/><path d="M150.3,112.4h8.63a.88.88,0,0,1,.85.65,1.62,1.62,0,0,0-1.6-1.32h-7.13a1.62,1.62,0,0,0-1.59,1.32A.86.86,0,0,1,150.3,112.4Z" transform="translate(-79.98 -58.91)" style="fill:#f9eda7"/><path d="M158.93,114.14H150.3a.87.87,0,0,1-.87-.83v0a1.63,1.63,0,0,0,1.62,1.62h7.13a1.63,1.63,0,0,0,1.63-1.62v0A.87.87,0,0,1,158.93,114.14Z" transform="translate(-79.98 -58.91)" style="fill:#e8c367"/><path d="M167.49,94.82h-7.14a1.63,1.63,0,0,1-1.62-1.62h0a1.63,1.63,0,0,1,1.62-1.62h7.14a1.63,1.63,0,0,1,1.62,1.62h0A1.63,1.63,0,0,1,167.49,94.82Z" transform="translate(-79.98 -58.91)" style="fill:#f4de7f"/><path d="M159.6,92.25h8.64a.88.88,0,0,1,.84.65,1.62,1.62,0,0,0-1.59-1.32h-7.14a1.62,1.62,0,0,0-1.59,1.32A.86.86,0,0,1,159.6,92.25Z" transform="translate(-79.98 -58.91)" style="fill:#f9eda7"/><path d="M168.24,94H159.6a.87.87,0,0,1-.87-.83v0a1.63,1.63,0,0,0,1.62,1.62h7.14a1.63,1.63,0,0,0,1.62-1.62v0A.88.88,0,0,1,168.24,94Z" transform="translate(-79.98 -58.91)" style="fill:#e8c367"/><path d="M146.5,86.37h-7.14a1.63,1.63,0,0,1-1.62-1.62h0a1.63,1.63,0,0,1,1.62-1.63h7.14a1.63,1.63,0,0,1,1.62,1.63h0A1.63,1.63,0,0,1,146.5,86.37Z" transform="translate(-79.98 -58.91)" style="fill:#f4de7f"/><path d="M138.61,83.79h8.64a.86.86,0,0,1,.84.66,1.63,1.63,0,0,0-1.59-1.33h-7.14a1.63,1.63,0,0,0-1.59,1.33A.88.88,0,0,1,138.61,83.79Z" transform="translate(-79.98 -58.91)" style="fill:#f9eda7"/><path d="M147.25,85.54h-8.64a.87.87,0,0,1-.86-.83s0,0,0,0a1.63,1.63,0,0,0,1.62,1.62h7.14a1.63,1.63,0,0,0,1.62-1.62v0A.87.87,0,0,1,147.25,85.54Z" transform="translate(-79.98 -58.91)" style="fill:#e8c367"/><path d="M134.15,95.61H127A1.63,1.63,0,0,1,125.39,94h0A1.63,1.63,0,0,1,127,92.37h7.14A1.63,1.63,0,0,1,135.77,94h0A1.63,1.63,0,0,1,134.15,95.61Z" transform="translate(-79.98 -58.91)" style="fill:#f4de7f"/><path d="M126.26,93h8.64a.88.88,0,0,1,.84.66,1.62,1.62,0,0,0-1.59-1.33H127a1.62,1.62,0,0,0-1.59,1.33A.88.88,0,0,1,126.26,93Z" transform="translate(-79.98 -58.91)" style="fill:#f9eda7"/><path d="M134.9,94.78h-8.64a.87.87,0,0,1-.87-.83v0A1.63,1.63,0,0,0,127,95.61h7.14A1.63,1.63,0,0,0,135.77,94v0A.88.88,0,0,1,134.9,94.78Z" transform="translate(-79.98 -58.91)" style="fill:#e8c367"/><rect x="39.14" y="41.12" width="10.38" height="3.25" rx="1.62" style="fill:#f4de7f"/><path d="M120,100.7h8.64a.88.88,0,0,1,.84.65,1.62,1.62,0,0,0-1.59-1.32h-7.14a1.62,1.62,0,0,0-1.59,1.32A.88.88,0,0,1,120,100.7Z" transform="translate(-79.98 -58.91)" style="fill:#f9eda7"/><path d="M128.63,102.44H120a.87.87,0,0,1-.87-.83v0a1.63,1.63,0,0,0,1.62,1.62h7.14a1.63,1.63,0,0,0,1.62-1.62v0A.88.88,0,0,1,128.63,102.44Z" transform="translate(-79.98 -58.91)" style="fill:#e8c367"/><path d="M141,112H133.9a1.63,1.63,0,0,1-1.62-1.62h0a1.63,1.63,0,0,1,1.62-1.62H141a1.63,1.63,0,0,1,1.62,1.62h0A1.63,1.63,0,0,1,141,112Z" transform="translate(-79.98 -58.91)" style="fill:#f4de7f"/><path d="M133.15,109.46h8.64a.88.88,0,0,1,.84.65,1.62,1.62,0,0,0-1.59-1.32H133.9a1.62,1.62,0,0,0-1.59,1.32A.86.86,0,0,1,133.15,109.46Z" transform="translate(-79.98 -58.91)" style="fill:#f9eda7"/><path d="M141.79,111.2h-8.64a.87.87,0,0,1-.87-.83v0A1.63,1.63,0,0,0,133.9,112H141a1.63,1.63,0,0,0,1.62-1.62v0A.88.88,0,0,1,141.79,111.2Z" transform="translate(-79.98 -58.91)" style="fill:#e8c367"/><path d="M101.75,86.33l-5.3,4.77a1.64,1.64,0,0,1-2.3-.12h0a1.63,1.63,0,0,1,.12-2.29l5.31-4.77a1.62,1.62,0,0,1,2.29.12h0A1.63,1.63,0,0,1,101.75,86.33Z" transform="translate(-79.98 -58.91)" style="fill:#f4de7f"/><path d="M94.16,89.69l6.43-5.78a.86.86,0,0,1,1.06-.07,1.62,1.62,0,0,0-2.07.08l-5.31,4.77a1.63,1.63,0,0,0-.29,2A.87.87,0,0,1,94.16,89.69Z" transform="translate(-79.98 -58.91)" style="fill:#f9eda7"/><path d="M101.75,85.21,95.33,91a.87.87,0,0,1-1.2,0l0,0a1.64,1.64,0,0,0,2.3.12l5.3-4.77a1.63,1.63,0,0,0,.12-2.29l0,0A.87.87,0,0,1,101.75,85.21Z" transform="translate(-79.98 -58.91)" style="fill:#e8c367"/><path d="M122.81,78.32l-5.31,4.77a1.63,1.63,0,0,1-2.29-.12h0a1.64,1.64,0,0,1,.12-2.3l5.31-4.77a1.63,1.63,0,0,1,2.29.13h0A1.63,1.63,0,0,1,122.81,78.32Z" transform="translate(-79.98 -58.91)" style="fill:#f4de7f"/><path d="M115.22,81.67l6.42-5.77a.87.87,0,0,1,1.07-.07,1.62,1.62,0,0,0-2.07.07l-5.31,4.77a1.65,1.65,0,0,0-.3,2.06A.89.89,0,0,1,115.22,81.67Z" transform="translate(-79.98 -58.91)" style="fill:#f9eda7"/><path d="M122.81,77.2,116.39,83a.87.87,0,0,1-1.2,0l0,0a1.63,1.63,0,0,0,2.29.12l5.31-4.77a1.63,1.63,0,0,0,.12-2.29l0,0A.88.88,0,0,1,122.81,77.2Z" transform="translate(-79.98 -58.91)" style="fill:#e8c367"/><path d="M124.21,90.34l-5.3,4.77a1.63,1.63,0,0,1-2.29-.12h0a1.63,1.63,0,0,1,.12-2.3l5.3-4.77a1.63,1.63,0,0,1,2.29.12h0A1.63,1.63,0,0,1,124.21,90.34Z" transform="translate(-79.98 -58.91)" style="fill:#f4de7f"/><path d="M116.63,93.69l6.42-5.77a.87.87,0,0,1,1.06-.08,1.63,1.63,0,0,0-2.07.08l-5.3,4.77a1.63,1.63,0,0,0-.3,2.06A.87.87,0,0,1,116.63,93.69Z" transform="translate(-79.98 -58.91)" style="fill:#f9eda7"/><path d="M124.21,89.22,117.79,95a.87.87,0,0,1-1.2,0l0,0a1.63,1.63,0,0,0,2.29.12l5.3-4.77a1.63,1.63,0,0,0,.12-2.3s0,0,0,0A.86.86,0,0,1,124.21,89.22Z" transform="translate(-79.98 -58.91)" style="fill:#e8c367"/><path d="M161.67,82.83l-5.3,4.77a1.63,1.63,0,0,1-2.29-.12h0a1.63,1.63,0,0,1,.12-2.29l5.3-4.77a1.64,1.64,0,0,1,2.3.12h0A1.63,1.63,0,0,1,161.67,82.83Z" transform="translate(-79.98 -58.91)" style="fill:#f4de7f"/><path d="M154.09,86.19l6.42-5.78a.87.87,0,0,1,1.07-.07,1.63,1.63,0,0,0-2.08.08l-5.3,4.77a1.62,1.62,0,0,0-.3,2A.87.87,0,0,1,154.09,86.19Z" transform="translate(-79.98 -58.91)" style="fill:#f9eda7"/><path d="M161.68,81.71l-6.43,5.78a.87.87,0,0,1-1.2,0l0,0a1.63,1.63,0,0,0,2.29.12l5.3-4.77a1.63,1.63,0,0,0,.13-2.29l0,0A.88.88,0,0,1,161.68,81.71Z" transform="translate(-79.98 -58.91)" style="fill:#e8c367"/><path d="M164.66,103.42l-5.31,4.77a1.63,1.63,0,0,1-2.29-.12h0a1.63,1.63,0,0,1,.12-2.29l5.31-4.78a1.63,1.63,0,0,1,2.29.13h0A1.63,1.63,0,0,1,164.66,103.42Z" transform="translate(-79.98 -58.91)" style="fill:#f4de7f"/><path d="M157.07,106.78l6.42-5.78a.87.87,0,0,1,1.07-.07,1.63,1.63,0,0,0-2.07.07l-5.31,4.78a1.63,1.63,0,0,0-.3,2A.87.87,0,0,1,157.07,106.78Z" transform="translate(-79.98 -58.91)" style="fill:#f9eda7"/><path d="M164.66,102.3l-6.42,5.77a.87.87,0,0,1-1.2,0l0,0a1.63,1.63,0,0,0,2.29.12l5.31-4.77a1.63,1.63,0,0,0,.12-2.29l0,0A.87.87,0,0,1,164.66,102.3Z" transform="translate(-79.98 -58.91)" style="fill:#e8c367"/><path d="M143.79,97.24l-5.3,4.77a1.62,1.62,0,0,1-2.29-.12h0a1.62,1.62,0,0,1,.12-2.29l5.3-4.77a1.64,1.64,0,0,1,2.3.12h0A1.63,1.63,0,0,1,143.79,97.24Z" transform="translate(-79.98 -58.91)" style="fill:#f4de7f"/><path d="M136.21,100.6l6.42-5.78a.87.87,0,0,1,1.07-.07,1.63,1.63,0,0,0-2.08.08l-5.3,4.77a1.62,1.62,0,0,0-.3,2.05A.87.87,0,0,1,136.21,100.6Z" transform="translate(-79.98 -58.91)" style="fill:#f9eda7"/><path d="M143.8,96.12l-6.43,5.78a.87.87,0,0,1-1.2,0l0,0a1.62,1.62,0,0,0,2.29.12l5.3-4.77a1.63,1.63,0,0,0,.13-2.29l0,0A.88.88,0,0,1,143.8,96.12Z" transform="translate(-79.98 -58.91)" style="fill:#e8c367"/><path d="M127.85,109.53l-5.3,4.77a1.64,1.64,0,0,1-2.3-.12h0a1.63,1.63,0,0,1,.13-2.29l5.3-4.78a1.63,1.63,0,0,1,2.29.13h0A1.62,1.62,0,0,1,127.85,109.53Z" transform="translate(-79.98 -58.91)" style="fill:#f4de7f"/><path d="M120.27,112.89l6.42-5.78a.86.86,0,0,1,1.06-.07,1.63,1.63,0,0,0-2.07.07l-5.3,4.78a1.62,1.62,0,0,0-.3,2A.86.86,0,0,1,120.27,112.89Z" transform="translate(-79.98 -58.91)" style="fill:#f9eda7"/><path d="M127.85,108.41l-6.42,5.77a.88.88,0,0,1-1.2,0s0,0,0,0a1.64,1.64,0,0,0,2.3.12l5.3-4.77a1.62,1.62,0,0,0,.12-2.29l0,0A.87.87,0,0,1,127.85,108.41Z" transform="translate(-79.98 -58.91)" style="fill:#e8c367"/><path d="M92,108.94l-5.3,4.77a1.63,1.63,0,0,1-2.29-.12h0a1.62,1.62,0,0,1,.12-2.29l5.3-4.77a1.63,1.63,0,0,1,2.3.12h0A1.63,1.63,0,0,1,92,108.94Z" transform="translate(-79.98 -58.91)" style="fill:#f4de7f"/><path d="M84.39,112.3l6.42-5.78a.87.87,0,0,1,1.07-.07,1.63,1.63,0,0,0-2.08.08l-5.3,4.77a1.62,1.62,0,0,0-.3,2A.87.87,0,0,1,84.39,112.3Z" transform="translate(-79.98 -58.91)" style="fill:#f9eda7"/><path d="M92,107.82l-6.43,5.77a.87.87,0,0,1-1.2,0l0,0a1.63,1.63,0,0,0,2.29.12l5.3-4.77a1.63,1.63,0,0,0,.13-2.29l0,0A.88.88,0,0,1,92,107.82Z" transform="translate(-79.98 -58.91)" style="fill:#e8c367"/><path d="M178.26,99,173,103.75a1.64,1.64,0,0,1-2.29-.12h0a1.64,1.64,0,0,1,.12-2.3l5.3-4.77a1.65,1.65,0,0,1,2.3.12h0A1.65,1.65,0,0,1,178.26,99Z" transform="translate(-79.98 -58.91)" style="fill:#f4de7f"/><path d="M170.67,102.33l6.42-5.77a.89.89,0,0,1,1.07-.08,1.64,1.64,0,0,0-2.08.08l-5.3,4.77a1.63,1.63,0,0,0-.3,2.06A.89.89,0,0,1,170.67,102.33Z" transform="translate(-79.98 -58.91)" style="fill:#f9eda7"/><path d="M178.26,97.86l-6.42,5.77a.88.88,0,0,1-1.21,0l0,0a1.64,1.64,0,0,0,2.29.12L178.26,99a1.65,1.65,0,0,0,.12-2.3l0,0A.88.88,0,0,1,178.26,97.86Z" transform="translate(-79.98 -58.91)" style="fill:#e8c367"/><path d="M112.94,106.89l-5.59-4.43a1.63,1.63,0,0,1-.27-2.28h0a1.62,1.62,0,0,1,2.28-.26l5.6,4.43a1.62,1.62,0,0,1,.26,2.28h0A1.62,1.62,0,0,1,112.94,106.89Z" transform="translate(-79.98 -58.91)" style="fill:#f4de7f"/><path d="M108.36,100l6.77,5.36a.87.87,0,0,1,.25,1,1.62,1.62,0,0,0-.42-2l-5.6-4.43a1.63,1.63,0,0,0-2.07,0A.89.89,0,0,1,108.36,100Z" transform="translate(-79.98 -58.91)" style="fill:#f9eda7"/><path d="M114.05,106.71l-6.77-5.36a.88.88,0,0,1-.17-1.2l0,0a1.63,1.63,0,0,0,.27,2.28l5.59,4.43a1.62,1.62,0,0,0,2.28-.26.08.08,0,0,0,0,0A.87.87,0,0,1,114.05,106.71Z" transform="translate(-79.98 -58.91)" style="fill:#e8c367"/><path d="M131.55,86.21,126,81.79a1.62,1.62,0,0,1-.26-2.28h0a1.63,1.63,0,0,1,2.28-.27l5.59,4.43a1.63,1.63,0,0,1,.27,2.28h0A1.62,1.62,0,0,1,131.55,86.21Z" transform="translate(-79.98 -58.91)" style="fill:#f4de7f"/><path d="M127,79.3l6.77,5.36a.88.88,0,0,1,.26,1,1.64,1.64,0,0,0-.43-2L128,79.24a1.64,1.64,0,0,0-2.08.05A.89.89,0,0,1,127,79.3Z" transform="translate(-79.98 -58.91)" style="fill:#f9eda7"/><path d="M132.65,86l-6.77-5.36a.88.88,0,0,1-.17-1.19s0,0,0,0a1.62,1.62,0,0,0,.26,2.28l5.6,4.42a1.62,1.62,0,0,0,2.28-.26s0,0,0,0A.87.87,0,0,1,132.65,86Z" transform="translate(-79.98 -58.91)" style="fill:#e8c367"/><path d="M153.45,96.92l-5.59-4.43a1.63,1.63,0,0,1-.27-2.28h0a1.63,1.63,0,0,1,2.28-.27l5.6,4.43a1.62,1.62,0,0,1,.26,2.28h0A1.63,1.63,0,0,1,153.45,96.92Z" transform="translate(-79.98 -58.91)" style="fill:#f4de7f"/><path d="M148.87,90l6.77,5.36a.87.87,0,0,1,.25,1,1.62,1.62,0,0,0-.42-2l-5.6-4.43a1.62,1.62,0,0,0-2.07.06A.87.87,0,0,1,148.87,90Z" transform="translate(-79.98 -58.91)" style="fill:#f9eda7"/><path d="M154.56,96.73l-6.77-5.36a.87.87,0,0,1-.17-1.19l0,0a1.63,1.63,0,0,0,.27,2.28l5.59,4.43a1.63,1.63,0,0,0,2.28-.27l0,0A.87.87,0,0,1,154.56,96.73Z" transform="translate(-79.98 -58.91)" style="fill:#e8c367"/><path d="M149.36,81l-5.59-4.43a1.63,1.63,0,0,1-.27-2.28h0a1.63,1.63,0,0,1,2.28-.27l5.6,4.43a1.62,1.62,0,0,1,.26,2.28h0A1.63,1.63,0,0,1,149.36,81Z" transform="translate(-79.98 -58.91)" style="fill:#f4de7f"/><path d="M144.78,74l6.77,5.36a.87.87,0,0,1,.25,1,1.62,1.62,0,0,0-.42-2L145.78,74a1.63,1.63,0,0,0-2.07,0A.89.89,0,0,1,144.78,74Z" transform="translate(-79.98 -58.91)" style="fill:#f9eda7"/><path d="M150.47,80.77l-6.78-5.36a.88.88,0,0,1-.16-1.19l0,0a1.63,1.63,0,0,0,.27,2.28L149.36,81a1.63,1.63,0,0,0,2.28-.27s0,0,0,0A.87.87,0,0,1,150.47,80.77Z" transform="translate(-79.98 -58.91)" style="fill:#e8c367"/><path d="M171.69,91.5l-5.59-4.42a1.63,1.63,0,0,1-.27-2.28h0a1.63,1.63,0,0,1,2.28-.27l5.6,4.43a1.63,1.63,0,0,1,.26,2.28h0A1.62,1.62,0,0,1,171.69,91.5Z" transform="translate(-79.98 -58.91)" style="fill:#f4de7f"/><path d="M167.11,84.59,173.88,90a.87.87,0,0,1,.25,1,1.62,1.62,0,0,0-.42-2l-5.6-4.43a1.63,1.63,0,0,0-2.07,0A.89.89,0,0,1,167.11,84.59Z" transform="translate(-79.98 -58.91)" style="fill:#f9eda7"/><path d="M172.8,91.32,166,86a.88.88,0,0,1-.16-1.19s0,0,0,0a1.63,1.63,0,0,0,.27,2.28l5.59,4.42a1.62,1.62,0,0,0,2.28-.26s0,0,0,0A.86.86,0,0,1,172.8,91.32Z" transform="translate(-79.98 -58.91)" style="fill:#e8c367"/><path d="M111,88.23l-5.59-4.42a1.63,1.63,0,0,1-.27-2.28h0a1.63,1.63,0,0,1,2.28-.27l5.6,4.43a1.62,1.62,0,0,1,.26,2.28h0A1.62,1.62,0,0,1,111,88.23Z" transform="translate(-79.98 -58.91)" style="fill:#f4de7f"/><path d="M106.45,81.32l6.77,5.36a.87.87,0,0,1,.25,1,1.62,1.62,0,0,0-.42-2l-5.6-4.43a1.63,1.63,0,0,0-2.07,0A.89.89,0,0,1,106.45,81.32Z" transform="translate(-79.98 -58.91)" style="fill:#f9eda7"/><path d="M112.14,88.05l-6.77-5.36a.87.87,0,0,1-.17-1.19l0,0a1.63,1.63,0,0,0,.27,2.28L111,88.23a1.62,1.62,0,0,0,2.28-.26l0,0A.88.88,0,0,1,112.14,88.05Z" transform="translate(-79.98 -58.91)" style="fill:#e8c367"/><path d="M96.49,103.92l-5.6-4.43a1.62,1.62,0,0,1-.26-2.28h0A1.62,1.62,0,0,1,92.91,97l5.59,4.43a1.63,1.63,0,0,1,.27,2.28h0A1.62,1.62,0,0,1,96.49,103.92Z" transform="translate(-79.98 -58.91)" style="fill:#f4de7f"/><path d="M91.9,97l6.78,5.36a.87.87,0,0,1,.25,1,1.63,1.63,0,0,0-.43-2L92.91,97a1.63,1.63,0,0,0-2.07,0A.87.87,0,0,1,91.9,97Z" transform="translate(-79.98 -58.91)" style="fill:#f9eda7"/><path d="M97.59,103.74l-6.77-5.36a.89.89,0,0,1-.16-1.2s0,0,0,0a1.62,1.62,0,0,0,.26,2.28l5.6,4.43a1.62,1.62,0,0,0,2.28-.26s0,0,0,0A.88.88,0,0,1,97.59,103.74Z" transform="translate(-79.98 -58.91)" style="fill:#e8c367"/><path d="M182.28,112.57l-5.6-4.43a1.62,1.62,0,0,1-.26-2.28h0a1.62,1.62,0,0,1,2.28-.26l5.59,4.43a1.63,1.63,0,0,1,.27,2.28h0A1.63,1.63,0,0,1,182.28,112.57Z" transform="translate(-79.98 -58.91)" style="fill:#f4de7f"/><path d="M177.69,105.66l6.78,5.36a.87.87,0,0,1,.25,1,1.63,1.63,0,0,0-.43-2l-5.59-4.43a1.64,1.64,0,0,0-2.08.05A.86.86,0,0,1,177.69,105.66Z" transform="translate(-79.98 -58.91)" style="fill:#f9eda7"/><path d="M183.38,112.38,176.61,107a.86.86,0,0,1-.16-1.19l0,0a1.62,1.62,0,0,0,.26,2.28l5.6,4.43a1.63,1.63,0,0,0,2.28-.26s0,0,0,0A.87.87,0,0,1,183.38,112.38Z" transform="translate(-79.98 -58.91)" style="fill:#e8c367"/><path d="M172.42,115.82l-5.59-4.43a1.63,1.63,0,0,1-.27-2.28h0a1.63,1.63,0,0,1,2.28-.27l5.6,4.43a1.62,1.62,0,0,1,.26,2.28h0A1.63,1.63,0,0,1,172.42,115.82Z" transform="translate(-79.98 -58.91)" style="fill:#f4de7f"/><path d="M167.84,108.9l6.77,5.36a.87.87,0,0,1,.25,1,1.62,1.62,0,0,0-.42-2l-5.6-4.43a1.62,1.62,0,0,0-2.07.06A.87.87,0,0,1,167.84,108.9Z" transform="translate(-79.98 -58.91)" style="fill:#f9eda7"/><path d="M173.53,115.63l-6.77-5.36a.87.87,0,0,1-.17-1.19l0,0a1.63,1.63,0,0,0,.27,2.28l5.59,4.43a1.63,1.63,0,0,0,2.28-.27l0,0A.88.88,0,0,1,173.53,115.63Z" transform="translate(-79.98 -58.91)" style="fill:#e8c367"/></svg>