<svg id="Camada_4" data-name="Camada 4" xmlns="http://www.w3.org/2000/svg" viewBox="0 0 94.06 90.33"><rect x="112.26" y="99.65" width="5.91" height="92.17" transform="translate(-142.23 -45.47) rotate(-22.98)" style="fill:#e2b798"/><polygon points="1.49 5.9 6.01 1.43 7.19 4.21 2.66 8.67 1.49 5.9" style="fill:#442215"/><polygon points="3.67 11.05 8.2 6.58 9.38 9.37 4.85 13.83 3.67 11.05" style="fill:#442215"/><polygon points="5.86 16.21 10.38 11.74 11.56 14.52 7.04 18.98 5.86 16.21" style="fill:#442215"/><polygon points="8.05 21.36 12.57 16.89 13.75 19.68 9.22 24.14 8.05 21.36" style="fill:#442215"/><polygon points="10.23 26.52 14.76 22.05 15.94 24.83 11.41 29.29 10.23 26.52" style="fill:#442215"/><polygon points="12.42 31.68 16.94 27.2 18.12 29.99 13.6 34.45 12.42 31.68" style="fill:#442215"/><polygon points="14.61 36.83 19.13 32.36 20.31 35.14 15.78 39.6 14.61 36.83" style="fill:#442215"/><polygon points="16.79 41.99 21.31 37.52 22.5 40.3 17.97 44.76 16.79 41.99" style="fill:#442215"/><polygon points="18.98 47.14 23.5 42.67 24.68 45.45 20.15 49.91 18.98 47.14" style="fill:#442215"/><polygon points="21.16 52.3 25.69 47.83 26.87 50.61 22.34 55.07 21.16 52.3" style="fill:#442215"/><polygon points="23.35 57.45 27.87 52.98 29.05 55.76 24.53 60.22 23.35 57.45" style="fill:#442215"/><polygon points="25.54 62.61 30.06 58.13 31.24 60.92 26.71 65.38 25.54 62.61" style="fill:#442215"/><polygon points="27.72 67.76 32.24 63.29 33.43 66.07 28.9 70.53 27.72 67.76" style="fill:#442215"/><polygon points="29.91 72.92 34.43 68.45 35.61 71.23 31.08 75.69 29.91 72.92" style="fill:#442215"/><polygon points="32.09 78.07 36.62 73.6 37.8 76.38 33.27 80.84 32.09 78.07" style="fill:#442215"/><polygon points="34.28 83.23 38.8 78.76 39.98 81.54 35.46 86 34.28 83.23" style="fill:#442215"/><path d="M130.48,189.31c-.13-.32,1-1.09,2.48-1.73s2.83-.89,3-.58-1,1.09-2.48,1.73S130.61,189.63,130.48,189.31Z" transform="translate(-94.48 -102.02)" style="fill:#e2b798"/><path d="M94.5,104.46c-.13-.32,1-1.09,2.48-1.73s2.83-.9,3-.58-1,1.09-2.48,1.73S94.63,104.77,94.5,104.46Z" transform="translate(-94.48 -102.02)" style="fill:#e2b798"/><path d="M140.45,137.8c-25.39,0-46,16-46,35.76V187a5.18,5.18,0,0,0,5,5.35h82a5.19,5.19,0,0,0,5-5.35V173.56C186.43,153.81,165.84,137.8,140.45,137.8Z" transform="translate(-94.48 -102.02)" style="fill:#fb887a"/><path d="M106.59,186.48V173.56c0-19.75,15.16-35.76,33.86-35.76-25.39,0-46,16-46,35.76V187a5.18,5.18,0,0,0,5,5.35h12.18C108.85,192.34,106.59,189.71,106.59,186.48Z" transform="translate(-94.48 -102.02)" style="fill:#fca599"/><path d="M140.45,137.8c18.7,0,33.86,16,33.86,35.76v12.92c0,3.23-2.26,5.86-5.06,5.86h12.18a5.19,5.19,0,0,0,5-5.35V173.56C186.43,153.81,165.84,137.8,140.45,137.8Z" transform="translate(-94.48 -102.02)" style="fill:#ea604e"/><path d="M172.55,122a7.39,7.39,0,0,0-9.47,4.42h0s-.94,19.54-1.2,21.76.28,2.39.28,2.39.54.22,1.76-1.65S177,131.42,177,131.42h0A7.38,7.38,0,0,0,172.55,122Z" transform="translate(-94.48 -102.02)" style="fill:#fca599"/><path d="M162.19,148.24c.42-2.16,3.05-21.09,3.05-21.09h0c1.4-3.83,4.67-6.16,7.31-5.2a7.39,7.39,0,0,0-9.47,4.42h0s-.94,19.54-1.2,21.76.28,2.39.28,2.39S161.78,150.4,162.19,148.24Z" transform="translate(-94.48 -102.02)" style="fill:#ffbfb8"/><path d="M172.55,122c2.65,1,3.66,4.85,2.26,8.68h0s-10.14,16.2-11.21,18.12-1.44,1.77-1.44,1.77.54.22,1.76-1.65S177,131.42,177,131.42h0A7.38,7.38,0,0,0,172.55,122Z" transform="translate(-94.48 -102.02)" style="fill:#fb887a"/><path d="M187.24,133.34A7.38,7.38,0,0,0,177,131.42h0s-12.14,15.34-13.65,17-1.16,2.11-1.16,2.11.31.49,2.39-.32,20.77-6.59,20.77-6.59h0A7.38,7.38,0,0,0,187.24,133.34Z" transform="translate(-94.48 -102.02)" style="fill:#fca599"/><path d="M163.51,148.68c1.6-1.51,14.76-15.37,14.76-15.37h0c3.36-2.3,7.38-2.29,9,0A7.38,7.38,0,0,0,177,131.42h0s-12.14,15.34-13.65,17-1.16,2.11-1.16,2.11S161.92,150.2,163.51,148.68Z" transform="translate(-94.48 -102.02)" style="fill:#ffbfb8"/><path d="M187.24,133.34c1.59,2.32.15,6.07-3.22,8.38h0s-17.67,7.26-19.66,8.2-2.2.6-2.2.6.31.49,2.39-.32,20.77-6.59,20.77-6.59h0A7.38,7.38,0,0,0,187.24,133.34Z" transform="translate(-94.48 -102.02)" style="fill:#fb887a"/><path d="M106.59,173.56c20.34-19.84,21.54,1.28,33.86,1.28h0c12.32,0,13.52-21.12,33.86-1.28,8.77,8.54,11.33-5.52,11.43-6.12-3.73-16.83-22.58-29.64-45.29-29.64s-41.56,12.81-45.29,29.64C95.26,168,97.83,182.1,106.59,173.56Z" transform="translate(-94.48 -102.02)" style="fill:#5d3420"/><path d="M140.45,137.8h0c-.75,0-1.5,0-2.25,0l-.74,0c-.49,0-1,.05-1.48.09l-.87.07-1.32.13-.92.12-1.24.17-.93.15-1.2.22c-.31,0-.62.11-.92.18l-1.18.26-.91.21-1.15.3-.88.24-1.2.37-.79.24c-.62.21-1.24.43-1.85.66l-1,.37-.92.37-1,.43-.81.37-1,.49-.74.37-1,.54-.67.37-1,.59-.59.36c-.35.22-.71.44-1,.67l-.47.31c-.37.25-.74.5-1.1.77l-.24.17a40.41,40.41,0,0,0-6.2,5.56l-.1.11c-.35.38-.68.77-1,1.16l-.12.15c-.32.39-.64.79-.94,1.2l-.09.12c-.31.42-.61.85-.9,1.28l0,0a30.41,30.41,0,0,0-4.49,10.35c.1.6,2.67,14.66,11.43,6.12C106.59,153.81,121.75,137.8,140.45,137.8Z" transform="translate(-94.48 -102.02)" style="fill:#8c4c35"/><path d="M185.74,167.44h0a30.64,30.64,0,0,0-4.48-10.36l0,0c-.29-.43-.59-.86-.9-1.28l-.09-.12q-.45-.61-.93-1.2l-.13-.15c-.32-.39-.65-.78-1-1.16l-.1-.11a40.49,40.49,0,0,0-6.21-5.56l-.23-.17c-.37-.27-.74-.52-1.11-.77l-.47-.31c-.34-.23-.69-.45-1-.67l-.58-.36c-.34-.2-.68-.4-1-.59l-.67-.37-1-.55-.74-.36-1-.49c-.26-.13-.54-.25-.81-.37l-1-.43-.91-.37-1-.37c-.61-.23-1.23-.45-1.85-.66l-.79-.24-1.2-.37-.88-.24c-.38-.1-.76-.21-1.15-.3s-.61-.14-.91-.21l-1.17-.26-.92-.18-1.21-.22-.92-.15-1.25-.17-.92-.12-1.32-.13-.87-.07c-.49,0-1-.07-1.48-.09l-.74,0c-.74,0-1.49,0-2.25,0h0c18.7,0,33.86,16,33.86,35.76h0C183.08,182.1,185.64,168,185.74,167.44Z" transform="translate(-94.48 -102.02)" style="fill:#442215"/><path d="M143.26,126.12s-.63,3.83,4.16,6.69,7.77,7.85-3,10.48S118,136.92,143.26,126.12Z" transform="translate(-94.48 -102.02)" style="fill:#f2d972"/><path d="M142.26,132.43c-2-2.15,1-6.31,1-6.31s-.63,3.83,4.16,6.69c4.56,2.72,7.46,7.35-1.46,10.07C150.47,137.53,144.19,134.51,142.26,132.43Z" transform="translate(-94.48 -102.02)" style="fill:#e8c367"/><path d="M143.26,126.12s-4.38,2.73-5.95,6.37c-1.47,3.41,6.53,5.95-2.45,10.36C128,140.47,125.44,133.74,143.26,126.12Z" transform="translate(-94.48 -102.02)" style="fill:#f9eda7"/></svg>